<?xml version="1.0" encoding="utf-8"?>
<!-- Generator: Adobe Illustrator 26.5.0, SVG Export Plug-In . SVG Version: 6.00 Build 0)  -->
<svg version="1.1" id="Capa_1" xmlns="http://www.w3.org/2000/svg" xmlns:xlink="http://www.w3.org/1999/xlink" x="0px" y="0px"
	 viewBox="0 0 32 21" style="enable-background:new 0 0 32 21;" xml:space="preserve">
<style type="text/css">
	.st0{fill:#FFFFFF;}
</style>
<g>
	<circle class="st0" cx="6.5" cy="14.5" r="5.5"/>
	<path class="st0" d="M6.5,21C2.9,21,0,18.1,0,14.5S2.9,8,6.5,8s6.5,2.9,6.5,6.5S10.1,21,6.5,21z M6.5,10C4,10,2,12,2,14.5
		S4,19,6.5,19s4.5-2,4.5-4.5S9,10,6.5,10z"/>
</g>
<g>
	<circle class="st0" cx="23.5" cy="14.5" r="5.5"/>
	<path class="st0" d="M23.5,21c-3.6,0-6.5-2.9-6.5-6.5S19.9,8,23.5,8s6.5,2.9,6.5,6.5S27.1,21,23.5,21z M23.5,10
		C21,10,19,12,19,14.5s2,4.5,4.5,4.5s4.5-2,4.5-4.5S26,10,23.5,10z"/>
</g>
<path class="st0" d="M1,15c-0.6,0-1-0.4-1-1C0,6.3,6.3,0,14,0c0.6,0,1,0.4,1,1s-0.4,1-1,1C7.4,2,2,7.4,2,14C2,14.6,1.6,15,1,15z"/>
<path class="st0" d="M18,15c-0.6,0-1-0.4-1-1c0-7.7,6.3-14,14-14c0.6,0,1,0.4,1,1s-0.4,1-1,1c-6.6,0-12,5.4-12,12
	C19,14.6,18.6,15,18,15z"/>
</svg>
