<?xml version="1.0" encoding="utf-8"?>
<!-- Generator: Adobe Illustrator 26.5.0, SVG Export Plug-In . SVG Version: 6.00 Build 0)  -->
<svg version="1.1" id="Layer_1" xmlns="http://www.w3.org/2000/svg" xmlns:xlink="http://www.w3.org/1999/xlink" x="0px" y="0px"
	 viewBox="0 0 777.3 140.4" style="enable-background:new 0 0 777.3 140.4;" xml:space="preserve">
<style type="text/css">
	.st0{fill:#1E2346;}
	.st1{fill:#FEA115;}
</style>
<g>
	<g>
		<path class="st0" d="M175.5,68.2h-21c-1.4,0-2.3-0.2-2.7-0.5c-0.5-0.4-0.8-1-0.8-1.7c0-0.2,0.1-0.8,0.2-1.6l0.8-6.9
			c0.2-1.5,0.5-2.4,0.9-2.7c0.4-0.3,1.3-0.5,2.8-0.5h41.8c1.2,0,2.1,0.1,2.5,0.3c0.7,0.4,1,0.9,1,1.7c0,0.5-0.4,1.4-1.2,2.5
			l-30.6,44.5h24.4c1.4,0,2.3,0.2,2.7,0.5c0.5,0.4,0.7,1,0.7,1.6c0,0.4,0,1-0.1,1.7l-0.9,6.8c-0.2,1.5-0.5,2.4-0.9,2.7
			c-0.4,0.3-1.3,0.5-2.8,0.5h-45.7c-1.3,0-2.1-0.1-2.5-0.3c-0.7-0.3-1-0.9-1-1.7c0-0.5,0.4-1.3,1.2-2.5L175.5,68.2z"/>
		<path class="st0" d="M229.5,73.9c7,0,12.6,1.7,16.8,5c5.1,4,7.6,9.6,7.6,16.9c0,5.8-2,10.9-5.9,15.2c-4.6,5-11,7.5-19,7.5
			c-7.5,0-13.6-2.1-18.2-6.2c-4.6-4.2-6.9-9.5-6.9-16c0-6.9,2.6-12.5,7.9-16.6C216.7,75.8,222.6,73.9,229.5,73.9z M229.8,86.1
			c-3,0-5.5,1.2-7.5,3.6c-1.7,2.1-2.6,4.7-2.6,7.7c0,2.3,0.5,4.1,1.6,5.6c1.6,2.1,3.9,3.2,6.9,3.2c2.9,0,5.3-1.1,7.1-3.2
			c1.9-2.1,2.8-4.9,2.8-8.2c0-2.6-0.8-4.7-2.3-6.3C234.4,86.9,232.4,86.1,229.8,86.1z"/>
		<path class="st0" d="M279.8,80.6c2.2-2,4.1-3.4,5.6-4.3c2.9-1.6,6.2-2.4,9.7-2.4c5.4,0,9.2,1.8,11.4,5.3c1.3,2,1.9,4.5,1.9,7.5
			c0,1.6-0.2,3.9-0.6,6.8l-2.5,20.5c-0.2,1.5-0.5,2.4-0.9,2.7c-0.4,0.3-1.3,0.5-2.8,0.5h-8.5c-1.4,0-2.3-0.2-2.7-0.5
			c-0.5-0.4-0.7-1-0.7-1.7c0-0.3,0-0.9,0.1-1.7l1.8-14.8c0.3-2.1,0.4-3.9,0.4-5.2c0-4.4-1.9-6.7-5.7-6.7c-2.5,0-4.4,0.9-5.7,2.7
			c-1.1,1.5-2,4.4-2.5,8.7l-1.9,15.8c-0.2,1.4-0.5,2.3-0.9,2.7c-0.4,0.3-1.3,0.5-2.8,0.5h-8.5c-1.4,0-2.4-0.2-2.8-0.5
			c-0.5-0.4-0.7-1-0.7-1.6c0-0.3,0-0.8,0.1-1.7l4.4-35.1c0.2-1.5,0.5-2.4,0.9-2.7c0.4-0.3,1.3-0.5,2.8-0.5h8.2
			c1.3,0,2.3,0.1,2.8,0.4c0.5,0.3,0.7,0.8,0.7,1.6c0,0.3-0.1,0.9-0.3,1.9L279.8,80.6z"/>
		<path class="st0" d="M335.7,80.6c2.2-2,4.1-3.4,5.6-4.3c2.9-1.6,6.2-2.4,9.7-2.4c5.4,0,9.2,1.8,11.4,5.3c1.3,2,1.9,4.5,1.9,7.5
			c0,1.6-0.2,3.9-0.6,6.8l-2.5,20.5c-0.2,1.5-0.5,2.4-0.9,2.7c-0.4,0.3-1.3,0.5-2.8,0.5h-8.5c-1.4,0-2.3-0.2-2.7-0.5
			c-0.5-0.4-0.7-1-0.7-1.7c0-0.3,0-0.9,0.1-1.7l1.8-14.8c0.3-2.1,0.4-3.9,0.4-5.2c0-4.4-1.9-6.7-5.7-6.7c-2.5,0-4.4,0.9-5.7,2.7
			c-1.1,1.5-2,4.4-2.5,8.7l-1.9,15.8c-0.2,1.4-0.5,2.3-0.9,2.7c-0.4,0.3-1.3,0.5-2.8,0.5h-8.5c-1.4,0-2.4-0.2-2.8-0.5
			c-0.5-0.4-0.7-1-0.7-1.6c0-0.3,0-0.8,0.1-1.7l4.4-35.1c0.2-1.5,0.5-2.4,0.9-2.7c0.4-0.3,1.3-0.5,2.8-0.5h8.2
			c1.3,0,2.3,0.1,2.8,0.4c0.5,0.3,0.7,0.8,0.7,1.6c0,0.3-0.1,0.9-0.3,1.9L335.7,80.6z"/>
		<path class="st0" d="M387.2,99.3c0,2.9,0.5,4.9,1.6,6.1c1.3,1.4,3.3,2.2,5.9,2.2c1.3,0,2.4-0.3,3.4-0.8c1-0.5,1.7-1.2,2-2.1
			c0.2-0.6,0.5-1,0.9-1.2c0.4-0.2,1.2-0.3,2.5-0.3h9.2c1.2,0,2,0.1,2.4,0.3c0.7,0.3,1.1,0.9,1.1,1.7c0,0.9-0.5,2.1-1.4,3.6
			c-0.9,1.5-2,2.8-3.2,3.9c-4.2,3.9-10,5.8-17.3,5.8c-6.6,0-11.7-1.6-15.4-4.9c-2-1.8-3.6-4-4.7-6.8c-1.1-2.8-1.7-5.7-1.7-8.9
			c0-6.8,2.2-12.5,6.6-17.1c4.4-4.6,10.5-6.9,18.2-6.9c7.4,0,12.9,2.2,16.7,6.6c3.3,3.8,4.9,9,4.9,15.6c0,1.4-0.2,2.4-0.6,2.7
			c-0.4,0.4-1.4,0.6-3,0.6H387.2z M403,90.5c-0.1-1.6-0.5-2.8-1-3.6c-1.3-1.9-3.3-2.9-5.9-2.9c-4.2,0-6.8,2.2-7.8,6.5H403z"/>
		<path class="st0" d="M444.6,80.4c2.7-2.5,5.2-4.2,7.4-5.1c2.2-1,4.6-1.4,7.4-1.4c5.6,0,10,2.1,13.2,6.2c2.7,3.5,4.1,8.2,4.1,14.1
			c0,6.4-1.5,11.8-4.6,16.3c-3.7,5.3-8.8,8-15.4,8c-4.2,0-7.8-1.3-11-3.8c-1.5-1.2-2.9-2.8-4.2-4.6l-3.4,27.2
			c-0.2,1.5-0.5,2.4-0.9,2.7c-0.4,0.3-1.3,0.5-2.8,0.5H426c-1.4,0-2.3-0.2-2.7-0.5c-0.5-0.4-0.8-1-0.8-1.6c0-0.3,0-0.8,0.1-1.7
			l7.2-58.4c0.2-1.5,0.5-2.4,0.9-2.7c0.4-0.3,1.3-0.5,2.8-0.5h8.2c1.3,0,2.2,0.1,2.7,0.4c0.5,0.3,0.8,0.8,0.8,1.5
			c0,0.3-0.1,1-0.3,1.9L444.6,80.4z M452.6,86.1c-3,0-5.5,1.2-7.5,3.6c-1.7,2.1-2.6,4.7-2.6,7.7c0,2.3,0.5,4.1,1.6,5.6
			c1.6,2.1,3.8,3.2,6.9,3.2c2.9,0,5.2-1.1,7-3.2c1.8-2.1,2.8-4.9,2.8-8.2c0-2.6-0.7-4.7-2.2-6.3C457.1,86.9,455.1,86.1,452.6,86.1z"
			/>
		<path class="st0" d="M515.1,112.6c-1.8,1.7-3.4,2.9-4.8,3.6c-2.8,1.5-6,2.3-9.5,2.3c-5.3,0-9.5-1.8-12.6-5.3
			c-3.3-3.7-4.9-8.6-4.9-14.7c0-4.9,1.1-9.5,3.4-13.6c2.3-4.1,5.4-7.1,9.3-9.1c2.8-1.4,6-2.1,9.5-2.1c2.9,0,5.4,0.4,7.3,1.3
			s4.1,2.5,6.3,4.8v-1.3c0-1.5,0.2-2.5,0.6-2.9c0.4-0.4,1.4-0.6,2.9-0.6h8.2c1.4,0,2.3,0.2,2.7,0.5c0.5,0.4,0.8,1,0.8,1.7
			c0,0.2,0,0.8-0.1,1.7l-4.3,35.1c-0.2,1.5-0.5,2.4-0.9,2.7c-0.4,0.3-1.3,0.5-2.8,0.5h-8.2c-1.2,0-1.9-0.1-2.3-0.2
			c-0.8-0.3-1.2-0.9-1.2-1.7c0-0.4,0.1-1.1,0.3-2L515.1,112.6z M509.1,86.1c-2.9,0-5.3,1.1-7.2,3.2c-1.9,2.2-2.9,4.9-2.9,8.1
			c0,2.3,0.5,4.2,1.6,5.6c1.6,2.1,3.8,3.2,6.8,3.2c2.9,0,5.2-1.1,7.1-3.2c1.8-2.2,2.8-4.9,2.8-8.3c0-2.6-0.7-4.7-2.2-6.3
			C513.7,86.8,511.7,86.1,509.1,86.1z"/>
		<path class="st0" d="M560.3,80.6c2.2-2,4.1-3.4,5.6-4.3c2.9-1.6,6.2-2.4,9.7-2.4c5.4,0,9.2,1.8,11.4,5.3c1.3,2,1.9,4.5,1.9,7.5
			c0,1.6-0.2,3.9-0.6,6.8l-2.5,20.5c-0.2,1.5-0.5,2.4-0.9,2.7c-0.4,0.3-1.3,0.5-2.8,0.5h-8.5c-1.4,0-2.3-0.2-2.7-0.5
			c-0.5-0.4-0.7-1-0.7-1.7c0-0.3,0-0.9,0.1-1.7l1.8-14.8c0.3-2.1,0.4-3.9,0.4-5.2c0-4.4-1.9-6.7-5.7-6.7c-2.5,0-4.4,0.9-5.7,2.7
			c-1.1,1.5-2,4.4-2.5,8.7l-1.9,15.8c-0.2,1.4-0.5,2.3-0.9,2.7c-0.4,0.3-1.3,0.5-2.8,0.5h-8.5c-1.4,0-2.4-0.2-2.8-0.5
			c-0.5-0.4-0.7-1-0.7-1.6c0-0.3,0-0.8,0.1-1.7l4.4-35.1c0.2-1.5,0.5-2.4,0.9-2.7c0.4-0.3,1.3-0.5,2.8-0.5h8.2
			c1.3,0,2.3,0.1,2.8,0.4c0.5,0.3,0.7,0.8,0.7,1.6c0,0.3-0.1,0.9-0.3,1.9L560.3,80.6z"/>
		<path class="st0" d="M611.7,99.3c0,2.9,0.5,4.9,1.6,6.1c1.3,1.4,3.3,2.2,5.9,2.2c1.3,0,2.4-0.3,3.5-0.8c1-0.5,1.7-1.2,2-2.1
			c0.2-0.6,0.5-1,0.9-1.2c0.4-0.2,1.2-0.3,2.5-0.3h9.2c1.2,0,2,0.1,2.4,0.3c0.7,0.3,1.1,0.9,1.1,1.7c0,0.9-0.5,2.1-1.4,3.6
			c-0.9,1.5-2,2.8-3.2,3.9c-4.2,3.9-10,5.8-17.3,5.8c-6.6,0-11.7-1.6-15.4-4.9c-2-1.8-3.6-4-4.7-6.8c-1.1-2.8-1.7-5.7-1.7-8.9
			c0-6.8,2.2-12.5,6.6-17.1c4.4-4.6,10.5-6.9,18.2-6.9c7.4,0,12.9,2.2,16.7,6.6c3.3,3.8,4.9,9,4.9,15.6c0,1.4-0.2,2.4-0.6,2.7
			c-0.4,0.4-1.4,0.6-3,0.6H611.7z M627.5,90.5c-0.1-1.6-0.5-2.8-1-3.6c-1.3-1.9-3.3-2.9-5.9-2.9c-4.2,0-6.8,2.2-7.8,6.5H627.5z"/>
		<path class="st0" d="M673.1,52.3l-7.6,61.7c-0.2,1.5-0.4,2.4-0.8,2.7c-0.4,0.3-1.3,0.5-2.8,0.5h-8.5c-1.4,0-2.4-0.2-2.8-0.5
			c-0.5-0.4-0.7-1-0.7-1.7c0-0.2,0-0.8,0.1-1.7l7.6-61.7c0.2-1.5,0.5-2.4,0.9-2.7c0.4-0.3,1.3-0.5,2.8-0.5h8.5
			c1.4,0,2.3,0.2,2.7,0.5c0.5,0.4,0.7,1,0.7,1.7C673.3,50.9,673.2,51.5,673.1,52.3z"/>
		<path class="st0" d="M691.4,99.3c0,2.9,0.5,4.9,1.6,6.1c1.3,1.4,3.3,2.2,5.9,2.2c1.3,0,2.4-0.3,3.5-0.8c1-0.5,1.7-1.2,2-2.1
			c0.2-0.6,0.5-1,0.9-1.2c0.4-0.2,1.2-0.3,2.5-0.3h9.2c1.2,0,2,0.1,2.4,0.3c0.7,0.3,1.1,0.9,1.1,1.7c0,0.9-0.5,2.1-1.4,3.6
			c-0.9,1.5-2,2.8-3.2,3.9c-4.2,3.9-10,5.8-17.3,5.8c-6.6,0-11.7-1.6-15.4-4.9c-2-1.8-3.6-4-4.7-6.8c-1.1-2.8-1.7-5.7-1.7-8.9
			c0-6.8,2.2-12.5,6.6-17.1c4.4-4.6,10.5-6.9,18.2-6.9c7.4,0,12.9,2.2,16.7,6.6c3.3,3.8,4.9,9,4.9,15.6c0,1.4-0.2,2.4-0.6,2.7
			c-0.4,0.4-1.4,0.6-3,0.6H691.4z M707.2,90.5c-0.1-1.6-0.5-2.8-1-3.6c-1.3-1.9-3.3-2.9-5.9-2.9c-4.2,0-6.8,2.2-7.8,6.5H707.2z"/>
		<path class="st0" d="M748.8,80.6c2.2-2,4.1-3.4,5.6-4.3c2.9-1.6,6.2-2.4,9.7-2.4c5.4,0,9.2,1.8,11.4,5.3c1.3,2,1.9,4.5,1.9,7.5
			c0,1.6-0.2,3.9-0.6,6.8l-2.5,20.5c-0.2,1.5-0.5,2.4-0.9,2.7c-0.4,0.3-1.3,0.5-2.8,0.5h-8.5c-1.4,0-2.3-0.2-2.7-0.5
			c-0.5-0.4-0.7-1-0.7-1.7c0-0.3,0-0.9,0.1-1.7l1.8-14.8c0.3-2.1,0.4-3.9,0.4-5.2c0-4.4-1.9-6.7-5.7-6.7c-2.5,0-4.4,0.9-5.7,2.7
			c-1.1,1.5-2,4.4-2.5,8.7l-1.9,15.8c-0.2,1.4-0.5,2.3-0.9,2.7c-0.4,0.3-1.3,0.5-2.8,0.5h-8.5c-1.4,0-2.4-0.2-2.8-0.5
			c-0.5-0.4-0.7-1-0.7-1.6c0-0.3,0-0.8,0.1-1.7l4.4-35.1c0.2-1.5,0.5-2.4,0.9-2.7c0.4-0.3,1.3-0.5,2.8-0.5h8.2
			c1.3,0,2.3,0.1,2.8,0.4c0.5,0.3,0.7,0.8,0.7,1.6c0,0.3-0.1,0.9-0.3,1.9L748.8,80.6z"/>
	</g>
	<g>
		<g>
			<g>
				<path class="st0" d="M0,112.6c2.4-4.8,4.8-9.5,7.3-14.3c0.6-1.1,0.9-2.7,1.8-3.2c1-0.6,2.5-0.2,3.8-0.2c13.5,0,27.1,0,40.6,0
					c0.5,0,1,0,1.5,0c0,7.4,0,14.7,0,22c-0.4,0-0.9,0-1.3,0c-16.5,0-33,0-49.4,0c-2.1,0-3.6-0.7-4.3-2.8C0,113.7,0,113.2,0,112.6z"
					/>
				<path class="st0" d="M61.9,117c0-7.4,0-14.6,0-22c0.4,0,0.8-0.1,1.2-0.1c14.6,0,29.1,0,43.7,0c0.8,0,1.2,0.2,1.6,0.9
					c2.6,5.2,5.2,10.4,7.8,15.6c1.5,3.1,0,5.5-3.4,5.5c-16.6,0-33.3,0-49.9,0C62.7,117,62.4,117,61.9,117z"/>
				<path class="st0" d="M55,66c0,7.4,0,14.6,0,22c-14.1,0-28.2,0-42.4,0c0.2-0.4,0.3-0.8,0.5-1.2c3-6,6.1-12.1,9.1-18.1
					c0.9-1.9,2.2-2.7,4.3-2.7c9.1,0.1,18.2,0,27.3,0C54.2,66,54.6,66,55,66z"/>
				<path class="st0" d="M61.9,88c0-7.3,0-14.6,0-22c0.4,0,0.8,0,1.2,0c9.1,0,18.2,0,27.3,0c2,0,3.3,0.8,4.2,2.6
					c3,6.1,6.2,12.2,9.2,18.3c0.2,0.3,0.3,0.6,0.5,1C90.2,88,76.1,88,61.9,88z"/>
			</g>
		</g>
		<g>
			<path class="st1" d="M59.4,0c2,0.9,2.7,2.5,2.5,4.6c-0.1,2,0,4.1,0,6.2c0,2.1-1.5,3.6-3.4,3.6c-2,0-3.4-1.5-3.4-3.6
				c0-2.1,0.1-4.1,0-6.2c-0.1-2.1,0.6-3.7,2.5-4.6C58.2,0,58.8,0,59.4,0z"/>
			<path class="st1" d="M58.4,42.7c-6.9,0-12.5-5.7-12.5-12.6c0-6.9,5.7-12.5,12.6-12.5c6.9,0,12.5,5.7,12.5,12.6
				C71,37.1,65.3,42.7,58.4,42.7z"/>
			<path class="st1" d="M48.3,16.2c-0.1,1.7-0.6,2.8-1.8,3.4c-1.2,0.6-2.5,0.6-3.5-0.3c-2.1-2-4.2-4-6.1-6.1C35.7,12,36,10,37.2,8.8
				c1.2-1.2,3.1-1.5,4.4-0.3c2.1,1.9,4.1,4,6.1,6.1C48.1,15.1,48.2,15.9,48.3,16.2z"/>
			<path class="st1" d="M80.9,11.7c-0.3,0.5-0.6,1.4-1.2,2.1c-1.6,1.7-3.3,3.4-5,5c-1.6,1.5-3.6,1.6-5,0.2c-1.4-1.4-1.4-3.5,0.1-5
				c1.7-1.7,3.4-3.5,5.2-5.2c1.1-1.1,2.5-1.3,3.9-0.7C80.2,8.8,80.7,9.9,80.9,11.7z"/>
			<path class="st1" d="M77,52.5c-0.5-0.3-1.4-0.6-2.1-1.2c-1.8-1.6-3.4-3.3-5.1-5.1c-1.5-1.5-1.5-3.6-0.1-5
				c1.4-1.3,3.4-1.3,4.9,0.1c1.8,1.7,3.5,3.5,5.2,5.3c1,1.1,1.3,2.4,0.7,3.8C79.9,51.8,78.8,52.4,77,52.5z"/>
			<path class="st1" d="M39.9,52.5c-1.6-0.1-2.7-0.7-3.3-1.9c-0.6-1.2-0.6-2.5,0.3-3.5c1.9-2.1,3.9-4.1,6-6.1
				c1.2-1.1,3.2-0.9,4.4,0.3c1.2,1.1,1.5,3.1,0.4,4.4c-2,2.2-4.1,4.2-6.2,6.2C41,52.3,40.3,52.4,39.9,52.5z"/>
			<path class="st1" d="M35.5,33.6c-1.3,0-2.5,0-3.8,0c-2-0.1-3.4-1.5-3.4-3.4c0-1.9,1.4-3.4,3.4-3.4c2.5,0,5,0,7.5,0
				c2,0,3.4,1.5,3.4,3.4c0,1.9-1.5,3.4-3.5,3.4C38,33.6,36.8,33.6,35.5,33.6z"/>
			<path class="st1" d="M81.4,33.6c-1.3,0-2.5,0-3.8,0c-2-0.1-3.4-1.5-3.4-3.4c0-1.9,1.5-3.4,3.4-3.4c2.5,0,5,0,7.5,0
				c2,0,3.4,1.5,3.4,3.4c0,1.9-1.5,3.4-3.4,3.4C84,33.6,82.7,33.6,81.4,33.6z"/>
			<path class="st1" d="M55.1,53.1c0-1.3,0-2.5,0-3.8c0.1-2,1.5-3.4,3.4-3.4c1.9,0,3.4,1.4,3.4,3.4c0,2.5,0,5,0,7.5
				c0,2-1.5,3.4-3.4,3.4c-1.9,0-3.4-1.4-3.4-3.4C55,55.6,55.1,54.4,55.1,53.1z"/>
		</g>
	</g>
</g>
</svg>
